<?xml version="1.0" encoding="utf-8"?><svg xmlns="http://www.w3.org/2000/svg" xmlns:xlink="http://www.w3.org/1999/xlink"><symbol viewBox="0 0 26 26" id="checked" xmlns="http://www.w3.org/2000/svg"><path d="M.3 14c-.2-.2-.3-.5-.3-.7s.1-.5.3-.7l1.4-1.4c.4-.4 1-.4 1.4 0l.1.1 5.5 5.9c.2.2.5.2.7 0L22.8 3.3h.1c.4-.4 1-.4 1.4 0l1.4 1.4c.4.4.4 1 0 1.4l-16 16.6c-.2.2-.4.3-.7.3-.3 0-.5-.1-.7-.3L.5 14.3.3 14z"/></symbol><symbol viewBox="0 0 219.15 219.15" id="ico_arrow" xmlns="http://www.w3.org/2000/svg"><path d="M109.575 0C49.156 0 .002 49.155.002 109.576c0 60.419 49.154 109.574 109.573 109.574s109.573-49.155 109.573-109.574C219.148 49.155 169.994 0 109.575 0zm0 204.15c-52.148 0-94.573-42.426-94.573-94.574C15.002 57.427 57.427 15 109.575 15s94.573 42.427 94.573 94.576c0 52.149-42.425 94.574-94.573 94.574z"/><path d="M124.29 62.645a7.501 7.501 0 0 0-10.606 10.607l28.821 28.82-83.457.008a7.5 7.5 0 1 0 0 15l83.46-.008-28.827 28.825a7.5 7.5 0 0 0 0 10.606 7.474 7.474 0 0 0 5.303 2.197 7.477 7.477 0 0 0 5.303-2.196l41.629-41.627a7.5 7.5 0 0 0 0-10.608L124.29 62.645z"/></symbol><symbol viewBox="0 0 477.175 477.175" id="ico_arrow_solid" xmlns="http://www.w3.org/2000/svg"><path d="M360.731 229.075l-225.1-225.1c-5.3-5.3-13.8-5.3-19.1 0s-5.3 13.8 0 19.1l215.5 215.5-215.5 215.5c-5.3 5.3-5.3 13.8 0 19.1 2.6 2.6 6.1 4 9.5 4 3.4 0 6.9-1.3 9.5-4l225.1-225.1c5.3-5.2 5.3-13.8.1-19z"/></symbol><symbol viewBox="0 0 431.8 314.5" id="ico_car" xmlns="http://www.w3.org/2000/svg"><path d="M422.4 93.3h-31.7c-2.4 0-4.7.9-6.5 2.6l-6.8 6.5C366 76 349.7 50 327.6 23 315.8 8.4 298.1 0 279.3 0H152.5c-18.8 0-36.5 8.4-48.4 22.9-22.8 27.8-38.8 53.3-49.9 79.3l-6.7-6.4c-1.7-1.7-4.1-2.6-6.5-2.6H9.4c-5.2 0-9.4 4.2-9.4 9.4v21.7c0 4.9 3.8 9 8.8 9.3l32.5 2.1c-4.9 14.4-8.8 35.8-8.8 66 0 26.2 5.2 43.4 14.3 54.6v50.4c0 4.3 3.5 7.8 7.8 7.8h36c4.3 0 7.8-3.5 7.8-7.8v-31.3H333v31.3c0 4.3 3.5 7.8 7.8 7.8h36c4.3 0 7.8-3.5 7.8-7.8v-50.4c9.1-11.1 14.3-28.4 14.3-54.6 0-30.2-3.8-51.6-8.8-66l32.5-2.1c4.9-.3 8.8-4.4 8.8-9.3v-21.7c.4-5.1-3.8-9.3-9-9.3zM130.8 44.8c5.3-6.5 13.3-10.3 21.7-10.3h126.8c8.4 0 16.4 3.7 21.7 10.3 15.4 18.9 27.6 37 37.1 55H93.6c9.1-17.6 21.4-35.7 37.2-55zm-26.6 192.3c-17.9 0-32.5-5.9-32.5-20.1 0-14.2 5.3-25.7 23.2-25.7s41.7 11.5 41.7 25.7-14.5 20.1-32.4 20.1zm145.7-3h-68.1c-10.3 0-18.6-8.3-18.6-18.6 0-2.9 2.3-5.2 5.2-5.2h94.9c2.9 0 5.2 2.3 5.2 5.2 0 10.3-8.3 18.6-18.6 18.6zm77.7 3c-17.9 0-32.5-5.9-32.5-20.1 0-14.2 23.8-25.7 41.7-25.7 17.9 0 23.2 11.5 23.2 25.7s-14.4 20.1-32.4 20.1z"/></symbol><symbol viewBox="0 0 981 614.1" id="ico_cash" xmlns="http://www.w3.org/2000/svg"><path d="M931 198h-19v267.1c0 44.1-35.9 80-80 80H198v19c0 27.6 22.4 50 50 50h683c27.6 0 50-22.4 50-50V248c0-27.6-22.4-50-50-50z"/><path d="M832 99h-19v267.1c0 44.1-35.9 80-80 80H99v19c0 27.6 22.4 50 50 50h683c27.6 0 50-22.4 50-50V149c0-27.6-22.4-50-50-50z"/><path d="M69 416.1h664c27.6 0 50-22.4 50-50V50c0-27.6-22.4-50-50-50H50C22.4 0 0 22.4 0 50v316.1c0 27.6 22.4 50 50 50h19zM285.7 69c1.4-1.7 3.2-3.3 5.2-4.5 9.6-6.2 22.2-4 29.3 4.5.6.7 1.2 1.5 1.7 2.3L330 84l9.6 15 51.9 81.4L443.4 99l9.6-15 8.1-12.7c.5-.8 1.1-1.6 1.7-2.3 7.1-8.6 19.7-10.7 29.3-4.5 2 1.3 3.7 2.8 5.2 4.5 3.5 4.2 5.4 9.6 5.2 15-.1 4-1.2 7.9-3.5 11.5l-2.2 3.5-63.1 99-3.4 5.4H454c12.4 0 22.5 10.1 22.5 22.5s-10.2 22.5-22.6 22.5H414v21.5h39.9c12.4 0 22.5 10.1 22.5 22.5s-10.1 22.5-22.5 22.5H414v27.8c0 12.4-10.1 22.5-22.5 22.5S369 355.1 369 342.7v-27.8h-39.9c-12.4 0-22.5-10.1-22.5-22.5s10.1-22.5 22.5-22.5H369v-21.5h-39.9c-12.4 0-22.5-10.1-22.5-22.5s10.1-22.5 22.5-22.5h23.7l-3.4-5.4-63.1-99-2.2-3.5c-2.3-3.6-3.4-7.6-3.5-11.5-.3-5.4 1.6-10.8 5.1-15z"/></symbol><symbol viewBox="0 0 234 234" id="ico_close" xmlns="http://www.w3.org/2000/svg"><path d="M-.195 21.351L21.017.138l212.136 212.128-21.213 21.214z"/><path d="M-.192 212.27L211.936.135l21.214 21.212L21.02 233.483z"/></symbol><symbol viewBox="0 0 444.892 444.892" id="ico_color" xmlns="http://www.w3.org/2000/svg"><path d="M440.498 173.103c5.858-5.857 5.858-15.355 0-21.213l-22.511-22.511a15.003 15.003 0 0 0-19.038-1.8l-47.332 32.17 31.975-47.652a14.999 14.999 0 0 0-1.85-18.964l-48.83-48.83a14.996 14.996 0 0 0-17.114-2.908l-8.443 4.065 4.043-8.97a15 15 0 0 0-3.068-16.771L293.002 4.393c-5.857-5.857-15.355-5.857-21.213 0l-119.06 119.059 168.71 168.71 119.059-119.059zM130.56 145.622l-34.466 34.466a15 15 0 0 0 0 21.212l32.694 32.694c6.299 6.299 9.354 14.992 8.382 23.849-.971 8.851-5.843 16.677-13.366 21.473-96.068 61.238-105.023 70.194-107.965 73.137-21.119 21.118-21.119 55.48 0 76.6 21.14 21.14 55.504 21.098 76.6 0 2.944-2.943 11.902-11.902 73.136-107.965 4.784-7.505 12.607-12.366 21.462-13.339 8.883-.969 17.575 2.071 23.859 8.354l32.694 32.694c5.857 5.857 15.356 5.857 21.213 0l34.467-34.467-168.71-168.708zM70.05 404.825c-8.28 8.28-21.704 8.28-29.983 0-8.28-8.28-8.28-21.704 0-29.983 8.28-8.28 21.704-8.28 29.983 0 8.28 8.279 8.28 21.703 0 29.983z"/></symbol><symbol viewBox="0 0 297 226.9" id="ico_column" xmlns="http://www.w3.org/2000/svg"><path d="M45.4 0C42.6 0 40 1.1 38 3.1s-3.1 4.7-3.1 7.5V170c0 5.8 4.8 10.6 10.6 10.6 24.7.1 66.2 5.2 94.8 35.1V49c0-2-.5-3.8-1.5-5.4C115.3 5.8 70.2.1 45.4 0zm216.8 170V10.6c0-2.9-1.1-5.5-3.1-7.5S254.5 0 251.7 0c-24.8.1-69.9 5.8-93.4 43.6-1 1.5-1.5 3.4-1.5 5.4v166.8c28.6-29.9 70-35.1 94.8-35.1 5.8-.1 10.6-4.9 10.6-10.7z"/><path d="M286.4 36.8h-7.7V170c0 14.9-12.2 27.1-27.1 27.1-21 .1-55.6 4.2-80.1 27.3 42.4-10.4 87.1-3.6 112.5 2.2 3.2.7 6.5 0 9-2.1 2.5-2 4-5.1 4-8.3V47.4c0-5.9-4.8-10.6-10.6-10.6zM18.3 170V36.8h-7.7C4.8 36.8 0 41.5 0 47.4v168.9c0 3.2 1.5 6.3 4 8.3 2.5 2 5.8 2.8 9 2.1 25.5-5.8 70.1-12.5 112.5-2.2-24.5-23.2-59.1-27.3-80.1-27.3-14.9-.1-27.1-12.3-27.1-27.2z"/></symbol><symbol viewBox="0 0 279 243.4" id="ico_crown" xmlns="http://www.w3.org/2000/svg"><path d="M278.7 64.1l-9.3 32.6c-12.5 43.7-14.6 90.4-6.2 135.1 1.3 2.1 1.6 4.8.5 7.1-1.2 2.7-3.9 4.4-6.8 4.4H22.1c-2.9 0-5.6-1.7-6.8-4.4-1.1-2.3-.8-5 .5-7.1 8.4-44.7 6.3-91.4-6.2-135.1L.3 64.1c-.8-2.9.2-6.1 2.6-7.9 2.4-1.9 5.7-2.1 8.3-.7L92 101l34.7-60.8c-5.6-4-9.3-10.6-9.3-18C117.4 10 127.3 0 139.6 0s22.2 9.9 22.2 22.2c0 7.4-3.7 14-9.3 18.1L187 101l80.8-45.5c2.6-1.5 5.9-1.2 8.3.7 2.4 1.9 3.4 5 2.6 7.9z"/></symbol><symbol viewBox="0 0 512 512" id="ico_doc" xmlns="http://www.w3.org/2000/svg"><path d="M389.513 87.422c0-12.012-4.688-23.32-13.184-31.816l-42.422-42.422C325.529 4.805 313.636 0 301.8 0h-2.578v90h90.292l-.001-2.578z"/><path d="M273.937 309.537c2.871-8.716 7.881-16.831 14.414-23.408l101.562-101.153V120h-105.4c-8.291 0-14.513-6.709-14.513-15V0H45C20.186 0 0 20.186 0 45v422c0 24.814 20.186 45 45 45h299.513c24.814 0 45.4-20.186 45.4-45V355.049l-16.484 16.084c-6.679 6.621-14.501 11.44-23.32 14.385l-47.695 15.923-7.266.396c-12.012 0-23.379-5.845-30.439-15.63-7.002-9.741-8.906-22.368-5.098-33.779l14.326-42.891zM75 270h149.513c8.291 0 15 6.709 15 15s-6.709 15-15 15H75c-8.291 0-15-6.709-15-15s6.709-15 15-15zm-15-45c0-8.291 6.709-15 15-15h149.513c8.291 0 15 6.709 15 15s-6.709 15-15 15H75c-8.291 0-15-6.709-15-15zm0 120c0-8.291 6.709-15 15-15h149.513c8.291 0 15 6.709 15 15s-6.709 15-15 15H75c-8.291 0-15-6.709-15-15zm224.513 75c8.291 0 15 6.709 15 15s-6.708 15-15 15h-90c-8.291 0-15-6.709-15-15s6.709-15 15-15h90zM75 180c-8.291 0-15-6.709-15-15s6.709-15 15-15h209.513c8.291 0 15 6.709 15 15s-6.709 15-15 15H75z"/><path d="M301.111 322.808l-13.05 39.151c-1.956 5.865 3.625 11.444 9.49 9.485l39.128-13.068-35.568-35.568zM417.609 199.307l-98.789 98.789 42.605 42.605c22.328-22.332 65.773-65.783 98.784-98.794l-42.6-42.6zM503.185 156.284c-5.273-5.303-13.037-8.335-21.27-8.335-8.233 0-15.996 3.032-21.299 8.35l-21.797 21.797 42.598 42.598 21.799-21.799c11.717-11.735 11.716-30.849-.031-42.611z"/><path d="M503.215 198.896l.002-.002.086-.086a3.634 3.634 0 0 1-.088.088zm.088-.088l.133-.133-.133.133zm.133-.133c.097-.097.099-.099 0 0z"/></symbol><symbol viewBox="0 0 512 512" style="width:256px;height:256px" id="ico_ex" xmlns="http://www.w3.org/2000/svg"><path d="M479.548 265.753a27.28 27.28 0 0 1 0-19.522l19.468-51.108c4.6-12.065.162-25.666-10.63-32.714l-45.797-29.904a27.438 27.438 0 0 1-11.471-15.801l-14.296-52.799c-3.366-12.443-14.96-20.865-27.828-20.224l-54.636 2.732a27.473 27.473 0 0 1-18.564-6.036L273.2 6.073c-10.035-8.097-24.361-8.097-34.404 0l-42.594 34.304a27.48 27.48 0 0 1-18.572 6.036l-54.629-2.732c-12.868-.64-24.462 7.781-27.827 20.224l-14.288 52.799a27.484 27.484 0 0 1-11.478 15.801L23.61 162.408c-10.791 7.048-15.222 20.664-10.629 32.714l19.476 51.116a27.353 27.353 0 0 1 0 19.521l-19.476 51.116c-4.593 12.042-.162 25.666 10.629 32.714l45.798 29.912a27.351 27.351 0 0 1 11.478 15.785l14.288 52.799c3.366 12.451 14.96 20.865 27.827 20.224l54.629-2.717a27.381 27.381 0 0 1 18.572 6.021l42.594 34.319c10.043 8.09 24.369 8.09 34.396 0l42.602-34.319a27.374 27.374 0 0 1 18.564-6.021l54.636 2.717c12.868.641 24.462-7.773 27.828-20.224l14.296-52.799a27.306 27.306 0 0 1 11.471-15.785l45.797-29.912c10.792-7.048 15.23-20.672 10.622-32.714l-19.46-51.122zm-190.77 103.374c0 10.451-8.476 18.943-18.927 18.943h-27.704c-10.452 0-18.935-8.492-18.935-18.943v-28.916c0-10.452 8.483-18.943 18.935-18.943h27.704c10.451 0 18.927 8.491 18.927 18.943v28.916zm0-100.179c0 10.452-8.476 18.928-18.927 18.928h-27.704c-10.452 0-18.935-8.476-18.935-18.928V142.879c0-10.467 8.483-18.943 18.935-18.943h27.704c10.451 0 18.927 8.476 18.927 18.943v126.069z"/></symbol><symbol viewBox="0 0 496.5 612" id="ico_gas" xmlns="http://www.w3.org/2000/svg"><path d="M488.6 162.5h-6.8l-17.2-48.6c-1.6-4.6-5.3-8.2-10-9.7L432.4 97c-8.3-2.7-17.2 1.9-19.9 10.2-2.7 8.3 1.9 17.2 10.2 19.9l14.8 4.8 10.9 30.7h-4.7c-3.1 0-5.9 1.8-7.2 4.6l-12.8 28.4c-.5 1.2-.8 2.4-.7 3.7l4.8 86.7c.2 4.2 3.7 7.4 7.9 7.4h4.9v188c0 21-11.9 39.2-29.3 48.3V412.5c0-11.5-4.2-22.1-11.1-30.4V58.8c0-32.4-26.4-58.8-58.8-58.8H69.8C37.4 0 11.1 26.4 11.1 58.8v323.3C4.2 390.3 0 400.9 0 412.4v152.2C0 590.8 21.2 612 47.3 612H364c23.6 0 43.2-17.3 46.7-39.9 39.9-10.9 69.3-47.4 69.3-90.7v-188h8.6c4.4 0 7.9-3.5 7.9-7.9V170.4c0-4.4-3.5-7.9-7.9-7.9zM205.6 430c-36.9 0-66.9-29.9-66.9-66.9 0-36.9 66.9-107.6 66.9-107.6s66.9 70.7 66.9 107.6c0 37-29.9 66.9-66.9 66.9zm131.5-261.3h-263V63.1h263v105.6z"/></symbol><symbol viewBox="0 0 512 512" id="ico_grade" xmlns="http://www.w3.org/2000/svg"><path d="M497 444.5h-6.3V53c0-8.3-6.7-15-15-15H364c-8.3 0-15 6.7-15 15v391.5h-22.1V198.6c0-8.3-6.7-15-15-15H200.1c-8.3 0-15 6.7-15 15v245.9H163V344.2c0-8.3-6.7-15-15-15H36.3c-8.3 0-15 6.7-15 15v100.3H15c-8.3 0-15 6.7-15 15s6.7 15 15 15h482c8.3 0 15-6.7 15-15s-6.7-15-15-15z"/></symbol><symbol viewBox="0 0 306.773 306.773" id="ico_house" xmlns="http://www.w3.org/2000/svg"><path d="M302.93 149.794a14.627 14.627 0 0 0-1.199-20.932L164.63 8.898c-6.223-5.442-16.2-5.328-22.292.257L4.771 135.258c-6.092 5.585-6.391 14.947-.662 20.902l3.449 3.592c5.722 5.955 14.971 6.665 20.645 1.581l10.281-9.207v134.792c0 8.27 6.701 14.965 14.965 14.965h53.624c8.264 0 14.965-6.695 14.965-14.965v-94.3h68.398v94.3c-.119 8.264 5.794 14.959 14.058 14.959h56.828c8.264 0 14.965-6.695 14.965-14.965V154.024s2.84 2.488 6.343 5.567c3.497 3.073 10.842.609 16.403-5.513l3.897-4.284z"/></symbol><symbol viewBox="0 0 485.211 485.211" id="ico_mail" xmlns="http://www.w3.org/2000/svg"><path d="M485.211 363.906c0 10.637-2.992 20.498-7.785 29.174L324.225 221.67l151.54-132.584c5.895 9.355 9.446 20.344 9.446 32.219v242.601zM242.606 252.793l210.863-184.5c-8.653-4.737-18.397-7.642-28.908-7.642H60.651c-10.524 0-20.271 2.905-28.889 7.642l210.844 184.5zm58.787-11.162l-48.809 42.734a15.145 15.145 0 0 1-9.978 3.729c-3.57 0-7.125-1.242-9.98-3.729l-48.82-42.736L28.667 415.23c9.299 5.834 20.197 9.329 31.983 9.329h363.911c11.784 0 22.687-3.495 31.983-9.329L301.393 241.631zM9.448 89.085C3.554 98.44 0 109.429 0 121.305v242.602c0 10.637 2.978 20.498 7.789 29.174l153.183-171.44L9.448 89.085z"/></symbol><symbol viewBox="0 0 426.667 426.667" id="ico_maker" xmlns="http://www.w3.org/2000/svg"><path d="M362.667 362.667V0L64 85.333v277.333H0v64h426.667v-64h-64zM149.333 320h-42.667v-42.667h42.667V320zm0-85.333h-42.667V192h42.667v42.667zm0-85.334h-42.667v-42.667h42.667v42.667zM234.667 320H192v-42.667h42.667V320zm0-85.333H192V192h42.667v42.667zm0-85.334H192v-42.667h42.667v42.667zM320 320h-42.667v-42.667H320V320zm0-85.333h-42.667V192H320v42.667zm0-85.334h-42.667v-42.667H320v42.667z"/></symbol><symbol viewBox="0 0 50 36" id="ico_menu" xmlns="http://www.w3.org/2000/svg"><path d="M0 0h50v4H0V0zm0 16h50v4H0v-4zm0 16h50v4H0v-4z"/></symbol><symbol viewBox="0 0 452.54 452.54" id="ico_option" xmlns="http://www.w3.org/2000/svg"><path d="M116.066 270.268c0 7.751-6.284 14.035-14.035 14.035H14.035C6.284 284.303 0 278.019 0 270.268v-87.996c0-7.751 6.284-14.035 14.035-14.035h87.996c7.752 0 14.035 6.284 14.035 14.035v87.996zM452.54 270.268c0 7.751-6.284 14.035-14.035 14.035h-87.997c-7.751 0-14.035-6.284-14.035-14.035v-87.997c0-7.751 6.284-14.035 14.035-14.035h87.997c7.751 0 14.035 6.284 14.035 14.035v87.997zM270.272 2.305h-88.004c-7.749 0-14.032 6.283-14.032 14.04v87.989c0 7.755 6.283 14.038 14.032 14.038h88.004c7.749 0 14.032-6.283 14.032-14.038V16.345c0-7.757-6.283-14.04-14.032-14.04zm-168.244 0H14.04C6.283 2.305 0 8.588 0 16.345v87.989c0 7.755 6.283 14.038 14.04 14.038h87.989c7.755 0 14.038-6.283 14.038-14.038V16.345c-.001-7.757-6.284-14.04-14.039-14.04zm336.472 0h-87.988c-7.755 0-14.038 6.283-14.038 14.04v87.989c0 7.755 6.283 14.038 14.038 14.038H438.5c7.757 0 14.04-6.283 14.04-14.038V16.345c0-7.757-6.283-14.04-14.04-14.04zM270.272 168.236h-88.004c-7.749 0-14.032 6.283-14.032 14.04v87.989c0 7.755 6.283 14.038 14.032 14.038h88.004c7.749 0 14.032-6.283 14.032-14.038v-87.989c0-7.757-6.283-14.04-14.032-14.04zm0 165.931h-88.004c-7.749 0-14.032 6.283-14.032 14.04v87.989c0 7.755 6.283 14.038 14.032 14.038h88.004c7.749 0 14.032-6.283 14.032-14.038v-87.989c0-7.757-6.283-14.04-14.032-14.04z"/><g><path d="M116.066 436.2c0 7.751-6.284 14.035-14.035 14.035H14.035C6.284 450.235 0 443.951 0 436.2v-87.996c0-7.751 6.284-14.035 14.035-14.035h87.996c7.752 0 14.035 6.284 14.035 14.035V436.2zM452.54 436.2c0 7.751-6.284 14.035-14.035 14.035h-87.997c-7.751 0-14.035-6.284-14.035-14.035v-87.997c0-7.751 6.284-14.035 14.035-14.035h87.997c7.751 0 14.035 6.284 14.035 14.035V436.2z"/></g></symbol><symbol viewBox="0 0 100 100" id="ico_other" xmlns="http://www.w3.org/2000/svg"><circle cx="50" cy="50" r="30"/></symbol><symbol viewBox="0 0 486 486" id="ico_pickup" xmlns="http://www.w3.org/2000/svg"><path d="M298.4 424.7v14.2c0 11.3-8.3 20.7-19.1 22.3l-3.5 12.9c-1.9 7-8.2 11.9-15.5 11.9h-34.7c-7.3 0-13.6-4.9-15.5-11.9l-3.4-12.9c-10.9-1.7-19.2-11-19.2-22.4v-14.2c0-7.6 6.1-13.7 13.7-13.7h83.5c7.6.1 13.7 6.2 13.7 13.8zM362.7 233.3zM242.2 113.6c-66.6.5-119.6 54.4-118.9 121 .3 31.7 13 60.5 33.4 81.7 15.8 16.3 26.1 37.5 29.6 59.8 1.4 9.6 9.8 16.6 19.5 16.6h74.3c9.8 0 18.1-7.1 19.6-16.7 3.4-22.3 13.6-43.2 29.4-59.6 20.8-21.5 33.6-50.8 33.6-83.1 0-66.4-54-120.2-120.5-119.7zm.8 60.7c-32.7 0-59.4 26.6-59.4 59.4 0 7.5-6.1 13.5-13.5 13.5-7.5 0-13.5-6.1-13.5-13.5 0-47.7 38.8-86.4 86.4-86.4 7.5 0 13.5 6.1 13.5 13.5 0 7.5-6 13.5-13.5 13.5zM243 74.3c7.4 0 13.5-6 13.5-13.5V13.5c0-7.4-6-13.5-13.5-13.5s-13.5 6-13.5 13.5v47.3c0 7.5 6.1 13.5 13.5 13.5zM84.1 233.2c0-7.4-6-13.5-13.5-13.5H23.3c-7.4 0-13.5 6-13.5 13.5 0 7.4 6 13.5 13.5 13.5h47.3c7.5 0 13.5-6 13.5-13.5zM462.7 219.7h-47.3c-7.4 0-13.5 6-13.5 13.5 0 7.4 6 13.5 13.5 13.5h47.3c7.4 0 13.5-6 13.5-13.5 0-7.4-6-13.5-13.5-13.5zM111.6 345.6l-33.5 33.5c-5.3 5.3-5.3 13.8 0 19.1 2.6 2.6 6.1 3.9 9.5 3.9s6.9-1.3 9.5-3.9l33.5-33.5c5.3-5.3 5.3-13.8 0-19.1-5.2-5.3-13.8-5.3-19 0zM364.9 124.8c3.4 0 6.9-1.3 9.5-3.9l33.5-33.5c5.3-5.3 5.3-13.8 0-19.1s-13.8-5.3-19.1 0l-33.5 33.5c-5.3 5.3-5.3 13.8 0 19.1 2.7 2.6 6.1 3.9 9.6 3.9zM111.6 120.8c2.6 2.6 6.1 3.9 9.5 3.9s6.9-1.3 9.5-3.9c5.3-5.3 5.3-13.8 0-19.1L97.1 68.2c-5.3-5.3-13.8-5.3-19.1 0-5.3 5.3-5.3 13.8 0 19.1l33.6 33.5zM374.4 345.6c-5.3-5.3-13.8-5.3-19.1 0-5.3 5.3-5.3 13.8 0 19.1l33.5 33.5c2.6 2.6 6.1 3.9 9.5 3.9s6.9-1.3 9.5-3.9c5.3-5.3 5.3-13.8 0-19.1l-33.4-33.5z"/></symbol><symbol viewBox="0 0 490.7 512" id="ico_printer" xmlns="http://www.w3.org/2000/svg"><path d="M157.4 335.7h175.8V356H157.4zM157.4 387.9h175.8v20.3H157.4zM157.4 434.2h83.1v20.3h-83.1z"/><path d="M477.7 163.7c-8-8-19.2-13-31.4-13H399V78.3L320.7 0H91.8v150.7H44.5c-12.3 0-23.4 5-31.4 13s-13 19.2-13 31.4v170c0 12.2 5 23.4 13 31.5 8 8 19.2 13 31.4 13h47.3V512H399V409.6h47.3c12.2 0 23.4-5 31.4-13s13-19.2 13-31.5v-170c0-12.2-5-23.4-13-31.4zM313.9 26l57 57h-57V26zm61.9 462.8H114.9V303.3h260.8v106.2l.1 79.3zm-50.6-258.5c0-9.2 7.5-16.7 16.7-16.7s16.7 7.5 16.7 16.7-7.5 16.7-16.7 16.7c-9.3 0-16.7-7.5-16.7-16.7zm50.6-79.6H114.9V23.2h175.8v83.1h85l.1 44.4zm37 96.3c-9.2 0-16.7-7.5-16.7-16.7s7.5-16.7 16.7-16.7 16.7 7.5 16.7 16.7S422 247 412.8 247z"/></symbol><symbol viewBox="0 0 30.239 30.239" id="ico_search" xmlns="http://www.w3.org/2000/svg"><path d="M20.194 3.46c-4.613-4.613-12.121-4.613-16.734 0-4.612 4.614-4.612 12.121 0 16.735 4.108 4.107 10.506 4.547 15.116 1.34.097.459.319.897.676 1.254l6.718 6.718a2.498 2.498 0 0 0 3.535 0 2.496 2.496 0 0 0 0-3.535l-6.718-6.72a2.5 2.5 0 0 0-1.253-.674c3.209-4.611 2.769-11.008-1.34-15.118zm-2.121 14.614c-3.444 3.444-9.049 3.444-12.492 0-3.442-3.444-3.442-9.048 0-12.492 3.443-3.443 9.048-3.443 12.492 0 3.444 3.444 3.444 9.048 0 12.492z"/></symbol><symbol viewBox="0 0 932.179 932.179" id="ico_setting" xmlns="http://www.w3.org/2000/svg"><path d="M61.2 341.538c4.9 16.8 11.7 33 20.3 48.2l-24.5 30.9c-8 10.1-7.1 24.5 1.9 33.6l42.2 42.2c9.1 9.1 23.5 9.899 33.6 1.899l30.7-24.3a223.05 223.05 0 0 0 50.1 21.2l4.6 39.5c1.5 12.8 12.3 22.4 25.1 22.4h59.7c12.8 0 23.6-9.601 25.1-22.4l4.4-38.1c18.8-4.9 36.8-12.2 53.7-21.7l29.7 23.5c10.1 8 24.5 7.1 33.6-1.9l42.2-42.2c9.1-9.1 9.9-23.5 1.9-33.6l-23.1-29.3c9.6-16.601 17.1-34.3 22.1-52.8l35.6-4.1c12.801-1.5 22.4-12.3 22.4-25.1v-59.7c0-12.8-9.6-23.6-22.4-25.1l-35.1-4.1c-4.801-18.3-12-35.8-21.199-52.2l21.6-27.3c8-10.1 7.1-24.5-1.9-33.6l-42.1-42.1c-9.1-9.1-23.5-9.9-33.6-1.9l-26.5 21c-17.2-10.1-35.601-17.8-54.9-23l-4-34.3c-1.5-12.8-12.3-22.4-25.1-22.4h-59.7c-12.8 0-23.6 9.6-25.1 22.4l-4 34.3c-19.8 5.3-38.7 13.3-56.3 23.8l-27.5-21.8c-10.1-8-24.5-7.1-33.6 1.9l-42.2 42.2c-9.1 9.1-9.9 23.5-1.9 33.6l23 29.1c-9.2 16.6-16.2 34.3-20.8 52.7l-36.8 4.2c-12.8 1.5-22.4 12.3-22.4 25.1v59.7c0 12.8 9.6 23.6 22.4 25.1l38.799 4.501zm216.3-161.5c54.4 0 98.7 44.3 98.7 98.7s-44.3 98.7-98.7 98.7c-54.399 0-98.7-44.3-98.7-98.7s44.3-98.7 98.7-98.7z"/><path d="M867.699 356.238l-31.5-26.6c-9.699-8.2-24-7.8-33.199.9l-17.4 16.3c-14.699-7.1-30.299-12.1-46.4-15l-4.898-24c-2.5-12.4-14-21-26.602-20l-41.1 3.5c-12.6 1.1-22.5 11.4-22.9 24.1l-.799 24.4c-15.801 5.7-30.701 13.5-44.301 23.3l-20.799-13.8c-10.602-7-24.701-5-32.9 4.7l-26.6 31.7c-8.201 9.7-7.801 24 .898 33.2l18.201 19.399a186.39 186.39 0 0 0-13.4 44.4l-26 5.3c-12.4 2.5-21 14-20 26.601l3.5 41.1c1.1 12.6 11.4 22.5 24.1 22.9l28.1.899c5.102 13.4 11.801 26.101 19.9 38l-15.699 23.7c-7 10.6-5 24.7 4.699 32.9l31.5 26.6c9.701 8.2 24 7.8 33.201-.9l20.6-19.3c13.5 6.3 27.699 11 42.299 13.8l5.701 28.2c2.5 12.4 14 21 26.6 20l41.1-3.5c12.6-1.1 22.5-11.399 22.9-24.1l.9-27.601c15-5.3 29.199-12.5 42.299-21.399l22.701 15c10.6 7 24.699 5 32.9-4.7l26.6-31.5c8.199-9.7 7.799-24-.9-33.2L872.7 592.138c6.701-14.2 11.602-29.2 14.4-44.601l25-5.1c12.4-2.5 21-14 20-26.601l-3.5-41.1c-1.1-12.6-11.4-22.5-24.1-22.9l-25.1-.8a181.601 181.601 0 0 0-20.9-41.2l13.699-20.6c7.201-10.598 5.201-24.798-4.5-32.998zM712.801 593.837c-44.4 3.801-83.602-29.3-87.301-73.699-3.801-44.4 29.301-83.601 73.699-87.301 44.4-3.8 83.602 29.301 87.301 73.7 3.801 44.401-29.301 83.601-73.699 87.3zM205 704.438c-12.6 1.3-22.3 11.899-22.4 24.6l-.3 25.3c-.2 12.7 9.2 23.5 21.8 25.101l18.6 2.399c3.1 11.301 7.5 22.101 13.2 32.301l-12 14.8c-8 9.899-7.4 24.1 1.5 33.2l17.7 18.1c8.9 9.1 23.1 10.1 33.2 2.3l14.899-11.5c10.5 6.2 21.601 11.101 33.2 14.5l2 19.2c1.3 12.6 11.9 22.3 24.6 22.4l25.301.3c12.699.2 23.5-9.2 25.1-21.8l2.3-18.2c12.601-3.101 24.601-7.8 36-14l14 11.3c9.9 8 24.101 7.4 33.201-1.5l18.1-17.7c9.1-8.899 10.1-23.1 2.301-33.2L496.6 818.438c6.6-11 11.701-22.7 15.201-35l16.6-1.7c12.6-1.3 22.299-11.9 22.4-24.6l.299-25.301c.201-12.699-9.199-23.5-21.799-25.1l-16.201-2.1c-3.1-12.2-7.699-24-13.699-35l10.1-12.4c8-9.9 7.4-24.1-1.5-33.2l-17.699-18.1a24.966 24.966 0 0 0-33.201-2.3l-12.101 9.3a147.09 147.09 0 0 0-36.399-15.8l-1.601-15.7c-1.3-12.601-11.899-22.3-24.6-22.4l-25.3-.3c-12.7-.2-23.5 9.2-25.101 21.8l-2 15.601a151.042 151.042 0 0 0-37.699 15.399l-12.5-10.2c-9.9-8-24.101-7.399-33.201 1.5l-18.2 17.801a24.965 24.965 0 0 0-2.3 33.199l10.7 13.801c-6.2 11-11.1 22.699-14.3 35l-17.499 1.8zm163.3-28.601c36.3.4 65.399 30.301 65 66.601-.4 36.3-30.301 65.399-66.601 65-36.3-.4-65.399-30.3-65-66.601.401-36.299 30.301-65.399 66.601-65z"/></symbol><symbol viewBox="0 0 512 341.3" id="ico_size" xmlns="http://www.w3.org/2000/svg"><path d="M326.3 121.7l27.5 27.6H158.2l27.5-27.6-30.1-30.1-79.1 79.1 79.1 79.1 30.1-30.2-27.5-27.6h195.6l-27.5 27.6 30.1 30.2 79.1-79.1-79.1-79.1zM0 0h42.7v341.3H0zm469.3 0H512v341.3h-42.7z"/></symbol><symbol viewBox="0 0 512 512" id="ico_support" xmlns="http://www.w3.org/2000/svg"><path d="M481.429 332.892c-26.337-26.357-62.882-37.523-109.815-24.945L204.256 140.419l2.212-8.364c9.639-36.166-.776-75.041-27.172-101.437C152.42 3.721 114.212-6.148 78.077 3.778a14.996 14.996 0 0 0-10.529 10.631 15.001 15.001 0 0 0 3.909 14.438l40.297 40.297c11.781 11.81 11.666 30.724.029 42.392-11.545 11.576-30.951 11.558-42.45.029L29.028 71.257a14.993 14.993 0 0 0-14.454-3.891A14.993 14.993 0 0 0 3.962 77.917c-9.781 35.738-.159 74.183 26.846 101.188 26.326 26.345 62.825 37.551 109.786 24.946l167.371 167.528c-12.49 46.919-1.716 83.11 24.975 109.801 26.91 26.93 65.136 36.726 101.192 26.833a14.999 14.999 0 0 0 10.532-10.631 14.998 14.998 0 0 0-3.909-14.44l-40.288-40.288c-11.781-11.81-11.666-30.726-.029-42.392 11.689-11.629 31.052-11.444 42.45-.015l40.308 40.297a14.996 14.996 0 0 0 14.453 3.889 14.995 14.995 0 0 0 10.611-10.549c9.781-35.732.161-74.187-26.831-101.192z"/><path d="M160.551 266.584L17.559 409.594c-23.401 23.401-23.401 61.455 0 84.855 23.401 23.401 61.455 23.401 84.855 0l142.989-143.006-84.852-84.859zM88.322 447.898c-5.86 5.86-15.35 5.86-21.21 0-5.859-5.859-5.859-15.351 0-21.21l90.98-90.997c5.859-5.859 15.352-5.859 21.21 0 5.859 5.859 5.859 15.351 0 21.21l-90.98 90.997zM507.596 30.253L481.737 4.394a15 15 0 0 0-18.322-2.258l-79.547 47.723c-8.37 5.021-9.791 16.568-2.891 23.469l6.332 6.33-100.98 100.567 42.435 42.435 100.98-100.567 8.919 8.921c6.901 6.899 18.449 5.479 23.469-2.891l47.723-79.547a15.004 15.004 0 0 0-2.259-18.323z"/></symbol><symbol viewBox="0 0 480.56 480.56" id="ico_tel" xmlns="http://www.w3.org/2000/svg"><path d="M365.354 317.9c-15.7-15.5-35.3-15.5-50.9 0-11.9 11.8-23.8 23.6-35.5 35.6-3.2 3.3-5.9 4-9.8 1.8-7.7-4.2-15.9-7.6-23.3-12.2-34.5-21.7-63.4-49.6-89-81-12.7-15.6-24-32.3-31.9-51.1-1.6-3.8-1.3-6.3 1.8-9.4 11.9-11.5 23.5-23.3 35.2-35.1 16.3-16.4 16.3-35.6-.1-52.1-9.3-9.4-18.6-18.6-27.9-28-9.6-9.6-19.1-19.3-28.8-28.8-15.7-15.3-35.3-15.3-50.9.1-12 11.8-23.5 23.9-35.7 35.5-11.3 10.7-17 23.8-18.2 39.1-1.9 24.9 4.2 48.4 12.8 71.3 17.6 47.4 44.4 89.5 76.9 128.1 43.9 52.2 96.3 93.5 157.6 123.3 27.6 13.4 56.2 23.7 87.3 25.4 21.4 1.2 40-4.2 54.9-20.9 10.2-11.4 21.7-21.8 32.5-32.7 16-16.2 16.1-35.8.2-51.8-19-19.1-38.1-38.1-57.2-57.1zm-19.1-79.7l36.9-6.3c-5.8-33.9-21.8-64.6-46.1-89-25.7-25.7-58.2-41.9-94-46.9l-5.2 37.1c27.7 3.9 52.9 16.4 72.8 36.3 18.8 18.8 31.1 42.6 35.6 68.8zm57.7-160.4c-42.6-42.6-96.5-69.5-156-77.8l-5.2 37.1c51.4 7.2 98 30.5 134.8 67.2 34.9 34.9 57.8 79 66.1 127.5l36.9-6.3c-9.7-56.2-36.2-107.2-76.6-147.7z"/></symbol><symbol viewBox="0 0 489.3 369.8" id="ico_wifi" xmlns="http://www.w3.org/2000/svg"><path d="M79.6 170c-10.2 10.2-10.2 26.8 0 37.1 10.2 10.2 26.8 10.2 37.1 0 70.6-70.6 185.5-70.6 256.1 0 5.1 5.1 11.8 7.7 18.5 7.7s13.4-2.6 18.5-7.7c10.2-10.2 10.2-26.8 0-37.1-91-91.2-239.2-91.2-330.2 0z"/><path d="M150.4 240.8c-10.2 10.2-10.2 26.8 0 37.1 10.2 10.2 26.8 10.2 37.1 0 31.5-31.6 82.9-31.6 114.4 0 5.1 5.1 11.8 7.7 18.5 7.7s13.4-2.6 18.5-7.7c10.2-10.2 10.2-26.8 0-37-51.9-52.1-136.5-52.1-188.5-.1z"/><circle cx="244.6" cy="334.9" r="34.9"/><path d="M481.6 98C351-32.7 138.4-32.7 7.6 98c-10.2 10.2-10.2 26.8 0 37.1 10.2 10.2 26.8 10.2 37.1 0 110.2-110.3 289.6-110.3 399.9 0 5.1 5.1 11.8 7.7 18.5 7.7s13.4-2.6 18.5-7.7c10.3-10.3 10.3-26.8 0-37.1z"/></symbol><symbol viewBox="0 0 487.2 465.2" id="star" xmlns="http://www.w3.org/2000/svg"><path d="M486.6 175.8c-1.6-4.9-5.8-8.4-10.9-9.2l-152-21.6L255.3 7.5c-2.3-4.6-7-7.5-12.1-7.5s-9.8 2.9-12.1 7.6l-67.5 137.9-152 22.6c-5.1.8-9.3 4.3-10.9 9.2s-.2 10.3 3.5 13.8L114.5 298 89 449.4c-.9 5.1 1.2 10.2 5.4 13.2 2.3 1.7 5.1 2.6 7.9 2.6 2.2 0 4.3-.5 6.3-1.6l135.7-71.9 136.1 71.1c2 1 4.1 1.5 6.2 1.5 7.4 0 13.5-6.1 13.5-13.5 0-1.1-.1-2.1-.4-3.1l-26.3-150.5L483 189.7c3.9-3.6 5.2-9 3.6-13.9zm-137 107.1c-3.2 3.1-4.6 7.6-3.8 12l22.9 131.3-118.2-61.7c-3.9-2.1-8.6-2-12.6 0l-117.8 62.4 22.1-131.5c.7-4.4-.7-8.8-3.9-11.9l-95.6-92.8 131.9-19.6c4.4-.7 8.2-3.4 10.1-7.4L243.3 44l59.4 119.4c2 4 5.8 6.7 10.2 7.4l132 18.8-95.3 93.3z"/></symbol><symbol viewBox="0 0 487.2 465.2" id="star_on" xmlns="http://www.w3.org/2000/svg"><path d="M486.6 175.8c-1.6-4.9-5.8-8.4-10.9-9.2l-152-21.6L255.3 7.5c-2.3-4.6-7-7.5-12.1-7.5s-9.8 2.9-12.1 7.6l-67.5 137.9-152 22.6c-5.1.8-9.3 4.3-10.9 9.2s-.2 10.3 3.5 13.8L114.5 298 89 449.4c-.9 5.1 1.2 10.2 5.4 13.2 2.3 1.7 5.1 2.6 7.9 2.6 2.2 0 4.3-.5 6.3-1.6l135.7-71.9 136.1 71.1c2 1 4.1 1.5 6.2 1.5 7.4 0 13.5-6.1 13.5-13.5 0-1.1-.1-2.1-.4-3.1l-26.3-150.5L483 189.7c3.9-3.6 5.2-9 3.6-13.9z"/></symbol></svg>